# xmcd
#
# Track frame offsets:
#	200
#	19780
#	38435
#	65605
#	85275
#	103917
#	121630
#	139467
#	158052
#	177372
#	203595
#
# Disc length: 2940 seconds
#
# Revision: 0
# Processed by: cddbd v1.4PL0 Copyright (c) Steve Scherf et al.
# Submitted via: dBpowerAMP V4.0
#
DISCID=8d0b7a0b
DTITLE=Bill Tilman - Picture This
DYEAR=1995
DGENRE=Blues
TTITLE0=Texas Ain't L.A.
TTITLE1=Don't Hang Up
TTITLE2=Tell Me What I Want To Hear
TTITLE3=Picture This
TTITLE4=All I Want Is You
TTITLE5=Thin Ice
TTITLE6=Isn't Anybody Listening To The Children?
TTITLE7=Lies
TTITLE8=Time
TTITLE9=Marvin
TTITLE10=Father
EXTD=
EXTT0=
EXTT1=
EXTT2=
EXTT3=
EXTT4=
EXTT5=
EXTT6=
EXTT7=
EXTT8=
EXTT9=
EXTT10=
PLAYORDER=
